<?xml version="1.0" encoding="UTF-8"?><svg xmlns="http://www.w3.org/2000/svg" xmlns:xlink="http://www.w3.org/1999/xlink" viewBox="0 0 1200 800"><defs><style>.cls-1{fill:#f4f4f4;}.cls-2{fill:#e2e0e0;}.cls-3{opacity:.6;}.cls-4{opacity:.2;}.cls-5{fill:url(#linear-gradient);opacity:.25;}.cls-6,.cls-7{opacity:.35;}.cls-7{fill:url(#linear-gradient-2);}.cls-8{opacity:.4;}.cls-9{fill:#eaeaea;}.cls-10{clip-path:url(#clippath);}.cls-11{fill:none;}.cls-12{fill:#bcbec0;}</style><clipPath id="clippath"><rect class="cls-11" x="0" width="1200" height="800"/></clipPath><linearGradient id="linear-gradient" x1="833.55" y1="365.85" x2="833.55" y2="67.18" gradientUnits="userSpaceOnUse"><stop offset="0" stop-color="#f4f4f4"/><stop offset="1" stop-color="#e2e0e0"/></linearGradient><linearGradient id="linear-gradient-2" x1="1222.32" y1="910.86" x2="1222.32" y2="425.23" gradientTransform="translate(1823.3) rotate(-180) scale(1 -1)" xlink:href="#linear-gradient"/></defs><g id="Background"><rect class="cls-1" x="0" width="1200" height="800"/></g><g id="Objects"><g class="cls-10"><g><polygon class="cls-5" points="1710.53 370.33 1615.64 266.6 1509.41 308.52 1413.92 254.64 1363.18 266.6 1343.36 291.46 1220.5 231.43 1156.7 168.99 1075.32 49.36 1044.48 266.6 1019.19 246.42 904.86 131.86 849.14 201.22 767.27 246.55 645.8 109.3 564.5 194.74 503.56 216.1 458.83 151.43 364.68 191.53 274.95 85.31 172.12 98.86 107.49 158.97 76.87 19.14 -43.42 210.8 -43.42 370.12 1710.53 370.33"/><polygon class="cls-7" points="1068.81 347.13 1019.03 574.49 913.93 476.75 746.74 454.72 600.84 627.42 447.75 562.22 375.03 667.38 275.94 632.64 143.76 493.73 -9.02 666.36 -9.02 809 1210.98 809 1210.98 573.64 1068.81 347.13"/><g class="cls-3"><g class="cls-3"><g><g><rect class="cls-2" x="637.79" y="764.71" width="6.18" height="86.32"/><rect class="cls-2" x="640.7" y="746.3" width=".34" height="18.87"/></g><g><rect class="cls-2" x="666.82" y="754.15" width="6.18" height="61.78"/><rect class="cls-2" x="669.74" y="740.45" width=".34" height="14.17"/></g><g><rect class="cls-2" x="618.3" y="755.52" width="6.18" height="61.78"/><rect class="cls-2" x="621.21" y="741.81" width=".34" height="14.17"/></g><g><rect class="cls-2" x="482.38" y="693.64" width="6.18" height="61.78"/><rect class="cls-2" x="485.3" y="679.94" width=".34" height="14.17"/><rect class="cls-2" x="485.3" y="752.08" width=".34" height="18.87"/></g><g><rect class="cls-2" x="347.59" y="718.45" width="6.18" height="61.78"/><rect class="cls-2" x="350.51" y="704.75" width=".34" height="14.17"/><rect class="cls-2" x="350.51" y="776.89" width=".34" height="18.87"/></g><g><rect class="cls-2" x="282.22" y="751.13" width="6.18" height="61.78"/><rect class="cls-2" x="285.13" y="737.43" width=".34" height="14.17"/></g><g><rect class="cls-2" x="186.51" y="751.13" width="6.18" height="61.78"/><rect class="cls-2" x="189.43" y="737.43" width=".34" height="14.17"/></g><g><rect class="cls-2" x="143.38" y="711.37" width="6.18" height="61.78"/><rect class="cls-2" x="146.3" y="697.67" width=".34" height="14.17"/><rect class="cls-2" x="146.3" y="769.81" width=".34" height="18.87"/></g><g><rect class="cls-2" x="131.87" y="670.48" width="6.18" height="61.78"/><rect class="cls-2" x="134.78" y="656.78" width=".34" height="14.17"/><rect class="cls-2" x="134.78" y="728.92" width=".34" height="18.87"/></g><g><rect class="cls-2" x="401.84" y="670.49" width="6.18" height="61.78"/><rect class="cls-2" x="404.76" y="656.78" width=".34" height="14.17"/><rect class="cls-2" x="404.76" y="728.92" width=".34" height="18.87"/></g><g><rect class="cls-2" x="443.91" y="687.89" width="6.18" height="61.78"/><rect class="cls-2" x="446.83" y="674.19" width=".34" height="14.17"/><rect class="cls-2" x="446.83" y="746.33" width=".34" height="18.87"/></g><g><rect class="cls-2" x="357.98" y="675.11" width="6.18" height="61.78"/><rect class="cls-2" x="360.9" y="661.41" width=".34" height="14.17"/><rect class="cls-2" x="360.9" y="733.55" width=".34" height="18.87"/></g><g><rect class="cls-2" x="657.61" y="773.72" width="6.18" height="61.78"/><rect class="cls-2" x="660.53" y="760.02" width=".34" height="14.17"/></g><g><rect class="cls-2" x="648" y="783.1" width="6.18" height="43.33"/><rect class="cls-2" x="651.09" y="769.4" width=".34" height="14.17"/></g><g><rect class="cls-2" x="676.98" y="736.6" width="6.18" height="43.33"/><rect class="cls-2" x="680.07" y="722.9" width=".34" height="14.17"/><rect class="cls-2" x="680.07" y="774.45" width=".34" height="18.87"/></g><g><rect class="cls-2" x="560.39" y="732.07" width="6.18" height="43.33"/><rect class="cls-2" x="563.48" y="718.36" width=".34" height="14.17"/><rect class="cls-2" x="563.48" y="769.92" width=".34" height="18.87"/></g><g><rect class="cls-2" x="325.29" y="778.99" width="6.18" height="43.33"/><rect class="cls-2" x="328.38" y="765.29" width=".34" height="14.17"/></g><g><rect class="cls-2" x="175.67" y="721.47" width="6.18" height="43.33"/><rect class="cls-2" x="178.76" y="707.77" width=".34" height="14.17"/><rect class="cls-2" x="178.76" y="759.33" width=".34" height="18.87"/></g><g><rect class="cls-2" x="271.38" y="735.73" width="6.18" height="43.33"/><rect class="cls-2" x="274.46" y="722.02" width=".34" height="14.17"/><rect class="cls-2" x="274.46" y="773.58" width=".34" height="18.87"/></g><g><rect class="cls-2" x="217.12" y="732.88" width="6.18" height="43.33"/><rect class="cls-2" x="220.21" y="719.17" width=".34" height="14.17"/><rect class="cls-2" x="220.21" y="770.73" width=".34" height="18.87"/></g><g><rect class="cls-2" x="501.53" y="730.59" width="6.18" height="43.33"/><rect class="cls-2" x="504.62" y="716.89" width=".34" height="14.17"/><rect class="cls-2" x="504.62" y="768.45" width=".34" height="18.87"/></g><g><rect class="cls-2" x="412.29" y="653.06" width="6.18" height="43.33"/><rect class="cls-2" x="415.38" y="639.35" width=".34" height="14.17"/><rect class="cls-2" x="415.38" y="690.91" width=".34" height="18.87"/></g><g><rect class="cls-2" x="686.25" y="761.59" width="6.18" height="36.59"/><rect class="cls-2" x="689.34" y="751.26" width=".34" height="10.8"/><rect class="cls-2" x="689.34" y="795.74" width=".34" height="12.13"/></g><g><rect class="cls-2" x="570.78" y="758.51" width="6.18" height="36.59"/><rect class="cls-2" x="573.87" y="748.18" width=".34" height="10.8"/><rect class="cls-2" x="573.87" y="792.66" width=".34" height="12.13"/></g><g><rect class="cls-2" x="550.78" y="772.05" width="6.18" height="36.59"/><rect class="cls-2" x="553.87" y="761.72" width=".34" height="10.8"/></g><g><rect class="cls-2" x="511.69" y="763.91" width="6.18" height="36.59"/><rect class="cls-2" x="514.78" y="753.58" width=".34" height="10.8"/><rect class="cls-2" x="514.78" y="798.06" width=".34" height="12.13"/></g><g><rect class="cls-2" x="491.98" y="713.08" width="6.18" height="36.59"/><rect class="cls-2" x="495.07" y="702.75" width=".34" height="10.8"/><rect class="cls-2" x="495.07" y="747.23" width=".34" height="12.13"/></g><g><rect class="cls-2" x="695.69" y="783.83" width="6.18" height="36.59"/><rect class="cls-2" x="698.77" y="773.5" width=".34" height="10.8"/></g><g><rect class="cls-2" x="705.34" y="770.35" width="6.18" height="29.85"/><rect class="cls-2" x="708.43" y="760.02" width=".34" height="10.8"/><rect class="cls-2" x="708.43" y="797.76" width=".34" height="12.13"/></g><g><rect class="cls-2" x="628.29" y="772.39" width="6.18" height="29.85"/><rect class="cls-2" x="631.38" y="762.06" width=".34" height="10.8"/><rect class="cls-2" x="631.38" y="799.8" width=".34" height="12.13"/></g><g><rect class="cls-2" x="580.22" y="777.44" width="6.18" height="29.85"/><rect class="cls-2" x="583.31" y="767.1" width=".34" height="10.8"/></g><g><rect class="cls-2" x="520.96" y="795.63" width="6.18" height="29.85"/><rect class="cls-2" x="524.05" y="785.29" width=".34" height="10.8"/></g><g><rect class="cls-2" x="336.64" y="765.63" width="6.18" height="29.85"/><rect class="cls-2" x="339.73" y="755.29" width=".34" height="10.8"/><rect class="cls-2" x="339.73" y="793.04" width=".34" height="12.13"/></g><g><rect class="cls-2" x="249.47" y="777.76" width="6.18" height="29.85"/><rect class="cls-2" x="252.56" y="767.43" width=".34" height="10.8"/></g><g><rect class="cls-2" x="463" y="719.69" width="6.18" height="29.85"/><rect class="cls-2" x="466.09" y="709.36" width=".34" height="10.8"/><rect class="cls-2" x="466.09" y="747.1" width=".34" height="12.13"/></g><g><rect class="cls-2" x="379.94" y="731.7" width="6.18" height="29.85"/><rect class="cls-2" x="383.03" y="721.37" width=".34" height="10.8"/><rect class="cls-2" x="383.03" y="759.11" width=".34" height="12.13"/></g><g><rect class="cls-2" x="434.02" y="702.29" width="6.18" height="29.85"/><rect class="cls-2" x="437.11" y="691.95" width=".34" height="10.8"/><rect class="cls-2" x="437.11" y="729.69" width=".34" height="12.13"/></g><g><rect class="cls-2" x="422.74" y="679.5" width="6.18" height="29.85"/><rect class="cls-2" x="425.82" y="669.17" width=".34" height="10.8"/><rect class="cls-2" x="425.82" y="706.91" width=".34" height="12.13"/></g><g><rect class="cls-2" x="472.67" y="734.29" width="6.18" height="29.85"/><rect class="cls-2" x="475.75" y="723.96" width=".34" height="10.8"/><rect class="cls-2" x="475.75" y="761.7" width=".34" height="12.13"/></g><g><rect class="cls-2" x="368.82" y="716.78" width="6.18" height="29.85"/><rect class="cls-2" x="371.91" y="706.44" width=".34" height="10.8"/><rect class="cls-2" x="371.91" y="744.19" width=".34" height="12.13"/></g><g><rect class="cls-2" x="293" y="738.56" width="6.18" height="29.85"/><rect class="cls-2" x="296.09" y="728.23" width=".34" height="10.8"/><rect class="cls-2" x="296.09" y="765.97" width=".34" height="12.13"/></g><g><rect class="cls-2" x="314.23" y="771.72" width="6.18" height="29.85"/><rect class="cls-2" x="317.32" y="761.39" width=".34" height="10.8"/><rect class="cls-2" x="317.32" y="799.13" width=".34" height="12.13"/></g><g><rect class="cls-2" x="260.65" y="759.32" width="6.18" height="29.85"/><rect class="cls-2" x="263.74" y="748.99" width=".34" height="10.8"/><rect class="cls-2" x="263.74" y="786.73" width=".34" height="12.13"/></g><g><rect class="cls-2" x="228.3" y="768.41" width="6.18" height="29.85"/><rect class="cls-2" x="231.39" y="758.08" width=".34" height="10.8"/><rect class="cls-2" x="231.39" y="795.82" width=".34" height="12.13"/></g><g><rect class="cls-2" x="196.96" y="738.7" width="6.18" height="29.85"/><rect class="cls-2" x="200.05" y="728.36" width=".34" height="10.8"/><rect class="cls-2" x="200.05" y="766.1" width=".34" height="12.13"/></g><g><rect class="cls-2" x="164.89" y="751.5" width="6.18" height="29.85"/><rect class="cls-2" x="167.98" y="741.17" width=".34" height="10.8"/><rect class="cls-2" x="167.98" y="778.91" width=".34" height="12.13"/></g><g><rect class="cls-2" x="609.2" y="793.27" width="6.18" height="29.85"/><rect class="cls-2" x="612.29" y="782.93" width=".34" height="10.8"/></g><rect class="cls-2" x="602.68" y="799.11" width=".34" height="10.8"/><g><rect class="cls-2" x="589.48" y="794.96" width="6.18" height="19.74"/><rect class="cls-2" x="592.57" y="784.63" width=".34" height="10.8"/></g><rect class="cls-2" x="544.05" y="794.07" width=".34" height="10.8"/><g><rect class="cls-2" x="453.79" y="742.71" width="6.18" height="19.74"/><rect class="cls-2" x="456.88" y="732.38" width=".34" height="10.8"/><rect class="cls-2" x="456.88" y="760.01" width=".34" height="12.13"/></g><g><rect class="cls-2" x="391" y="719.81" width="6.18" height="19.74"/><rect class="cls-2" x="394.09" y="709.48" width=".34" height="10.8"/><rect class="cls-2" x="394.09" y="737.11" width=".34" height="12.13"/></g><g><rect class="cls-2" x="303.39" y="762.17" width="6.18" height="19.74"/><rect class="cls-2" x="306.48" y="751.84" width=".34" height="10.8"/><rect class="cls-2" x="306.48" y="779.47" width=".34" height="12.13"/></g><g><rect class="cls-2" x="239.36" y="799.1" width="6.18" height="19.74"/><rect class="cls-2" x="242.45" y="788.76" width=".34" height="10.8"/></g><g><rect class="cls-2" x="207.07" y="760.37" width="6.18" height="19.74"/><rect class="cls-2" x="210.16" y="750.04" width=".34" height="10.8"/><rect class="cls-2" x="210.16" y="777.67" width=".34" height="12.13"/></g><g><rect class="cls-2" x="154.16" y="773.79" width="6.18" height="19.74"/><rect class="cls-2" x="157.25" y="763.46" width=".34" height="10.8"/><rect class="cls-2" x="157.25" y="791.09" width=".34" height="12.13"/></g><g><rect class="cls-2" x="121.18" y="658.94" width="6.18" height="19.74"/><rect class="cls-2" x="124.27" y="648.61" width=".34" height="10.8"/><rect class="cls-2" x="124.27" y="676.24" width=".34" height="12.13"/></g></g><g><g><rect class="cls-2" x="41.63" y="628.55" width="6.18" height="86.32"/><rect class="cls-2" x="44.55" y="610.15" width=".34" height="18.87"/></g><g><rect class="cls-2" x="70.67" y="618" width="6.18" height="61.78"/><rect class="cls-2" x="73.58" y="604.29" width=".34" height="14.17"/><rect class="cls-2" x="73.58" y="676.43" width=".34" height="18.87"/></g><g><rect class="cls-2" x="22.14" y="619.36" width="6.18" height="61.78"/><rect class="cls-2" x="25.06" y="605.66" width=".34" height="14.17"/><rect class="cls-2" x="25.06" y="677.8" width=".34" height="18.87"/></g><g><rect class="cls-2" x="61.46" y="637.57" width="6.18" height="61.78"/><rect class="cls-2" x="64.37" y="623.86" width=".34" height="14.17"/><rect class="cls-2" x="64.37" y="696" width=".34" height="18.87"/></g><g><rect class="cls-2" x="51.85" y="646.95" width="6.18" height="43.33"/><rect class="cls-2" x="54.94" y="633.24" width=".34" height="14.17"/><rect class="cls-2" x="54.94" y="684.8" width=".34" height="18.87"/></g><g><rect class="cls-2" x="80.83" y="600.44" width="6.18" height="43.33"/><rect class="cls-2" x="83.92" y="586.74" width=".34" height="14.17"/><rect class="cls-2" x="83.92" y="638.3" width=".34" height="18.87"/></g><g><rect class="cls-2" x="90.1" y="625.44" width="6.18" height="36.59"/><rect class="cls-2" x="93.18" y="615.1" width=".34" height="10.8"/><rect class="cls-2" x="93.18" y="659.58" width=".34" height="12.13"/></g><g><rect class="cls-2" x="99.53" y="647.68" width="6.18" height="36.59"/><rect class="cls-2" x="102.62" y="637.34" width=".34" height="10.8"/><rect class="cls-2" x="102.62" y="681.82" width=".34" height="12.13"/></g><g><rect class="cls-2" x="109.19" y="634.2" width="6.18" height="29.85"/><rect class="cls-2" x="112.28" y="623.86" width=".34" height="10.8"/><rect class="cls-2" x="112.28" y="661.61" width=".34" height="12.13"/></g><g><rect class="cls-2" x="32.14" y="636.23" width="6.18" height="29.85"/><rect class="cls-2" x="35.23" y="625.9" width=".34" height="10.8"/><rect class="cls-2" x="35.23" y="663.64" width=".34" height="12.13"/></g><g><rect class="cls-2" x="13.04" y="657.11" width="6.18" height="29.85"/><rect class="cls-2" x="16.13" y="646.78" width=".34" height="10.8"/><rect class="cls-2" x="16.13" y="684.52" width=".34" height="12.13"/></g><g><rect class="cls-2" x="3.44" y="673.29" width="6.18" height="19.74"/><rect class="cls-2" x="6.53" y="662.95" width=".34" height="10.8"/><rect class="cls-2" x="6.53" y="690.59" width=".34" height="12.13"/></g></g></g><g class="cls-3"><g><g><rect class="cls-2" x="1193.31" y="771.45" width="6.18" height="86.32"/><rect class="cls-2" x="1196.22" y="753.04" width=".34" height="18.87"/></g><g><rect class="cls-2" x="1173.82" y="762.26" width="6.18" height="61.78"/><rect class="cls-2" x="1176.74" y="748.55" width=".34" height="14.17"/></g><g><rect class="cls-2" x="1037.9" y="700.38" width="6.18" height="61.78"/><rect class="cls-2" x="1040.82" y="686.68" width=".34" height="14.17"/><rect class="cls-2" x="1040.82" y="758.82" width=".34" height="18.87"/></g><g><rect class="cls-2" x="903.11" y="725.19" width="6.18" height="61.78"/><rect class="cls-2" x="906.03" y="711.49" width=".34" height="14.17"/><rect class="cls-2" x="906.03" y="783.63" width=".34" height="18.87"/></g><g><rect class="cls-2" x="837.74" y="757.88" width="6.18" height="61.78"/><rect class="cls-2" x="840.66" y="744.17" width=".34" height="14.17"/></g><g><rect class="cls-2" x="742.04" y="757.88" width="6.18" height="61.78"/><rect class="cls-2" x="744.95" y="744.17" width=".34" height="14.17"/></g><g><rect class="cls-2" x="698.9" y="718.12" width="6.18" height="61.78"/><rect class="cls-2" x="701.82" y="704.41" width=".34" height="14.17"/><rect class="cls-2" x="701.82" y="776.55" width=".34" height="18.87"/></g><g><rect class="cls-2" x="687.39" y="677.23" width="6.18" height="61.78"/><rect class="cls-2" x="690.31" y="663.52" width=".34" height="14.17"/><rect class="cls-2" x="690.31" y="735.66" width=".34" height="18.87"/></g><g><rect class="cls-2" x="957.37" y="677.23" width="6.18" height="61.78"/><rect class="cls-2" x="960.28" y="663.52" width=".34" height="14.17"/><rect class="cls-2" x="960.28" y="735.66" width=".34" height="18.87"/></g><g><rect class="cls-2" x="999.43" y="694.63" width="6.18" height="61.78"/><rect class="cls-2" x="1002.35" y="680.93" width=".34" height="14.17"/><rect class="cls-2" x="1002.35" y="753.07" width=".34" height="18.87"/></g><g><rect class="cls-2" x="913.5" y="681.85" width="6.18" height="61.78"/><rect class="cls-2" x="916.42" y="668.15" width=".34" height="14.17"/><rect class="cls-2" x="916.42" y="740.29" width=".34" height="18.87"/></g><g><rect class="cls-2" x="1115.91" y="738.81" width="6.18" height="43.33"/><rect class="cls-2" x="1119" y="725.1" width=".34" height="14.17"/><rect class="cls-2" x="1119" y="776.66" width=".34" height="18.87"/></g><g><rect class="cls-2" x="880.81" y="785.73" width="6.18" height="43.33"/><rect class="cls-2" x="883.9" y="772.03" width=".34" height="14.17"/></g><g><rect class="cls-2" x="731.2" y="728.21" width="6.18" height="43.33"/><rect class="cls-2" x="734.28" y="714.51" width=".34" height="14.17"/><rect class="cls-2" x="734.28" y="766.07" width=".34" height="18.87"/></g><g><rect class="cls-2" x="826.9" y="742.47" width="6.18" height="43.33"/><rect class="cls-2" x="829.99" y="728.77" width=".34" height="14.17"/><rect class="cls-2" x="829.99" y="780.32" width=".34" height="18.87"/></g><g><rect class="cls-2" x="772.64" y="739.62" width="6.18" height="43.33"/><rect class="cls-2" x="775.73" y="725.92" width=".34" height="14.17"/><rect class="cls-2" x="775.73" y="777.47" width=".34" height="18.87"/></g><g><rect class="cls-2" x="1057.05" y="737.33" width="6.18" height="43.33"/><rect class="cls-2" x="1060.14" y="723.63" width=".34" height="14.17"/><rect class="cls-2" x="1060.14" y="775.19" width=".34" height="18.87"/></g><g><rect class="cls-2" x="967.81" y="659.8" width="6.18" height="43.33"/><rect class="cls-2" x="970.9" y="646.1" width=".34" height="14.17"/><rect class="cls-2" x="970.9" y="697.65" width=".34" height="18.87"/></g><g><rect class="cls-2" x="1126.3" y="765.25" width="6.18" height="36.59"/><rect class="cls-2" x="1129.39" y="754.92" width=".34" height="10.8"/><rect class="cls-2" x="1129.39" y="799.4" width=".34" height="12.13"/></g><g><rect class="cls-2" x="1106.31" y="778.79" width="6.18" height="36.59"/><rect class="cls-2" x="1109.4" y="768.46" width=".34" height="10.8"/></g><g><rect class="cls-2" x="1067.22" y="770.65" width="6.18" height="36.59"/><rect class="cls-2" x="1070.31" y="760.32" width=".34" height="10.8"/></g><g><rect class="cls-2" x="1047.51" y="719.83" width="6.18" height="36.59"/><rect class="cls-2" x="1050.6" y="709.49" width=".34" height="10.8"/><rect class="cls-2" x="1050.6" y="753.97" width=".34" height="12.13"/></g><g><rect class="cls-2" x="1183.82" y="779.13" width="6.18" height="29.85"/><rect class="cls-2" x="1186.9" y="768.8" width=".34" height="10.8"/></g><g><rect class="cls-2" x="1135.74" y="784.18" width="6.18" height="29.85"/><rect class="cls-2" x="1138.83" y="773.84" width=".34" height="10.8"/></g><rect class="cls-2" x="1079.58" y="792.04" width=".34" height="10.8"/><g><rect class="cls-2" x="892.16" y="772.37" width="6.18" height="29.85"/><rect class="cls-2" x="895.25" y="762.04" width=".34" height="10.8"/><rect class="cls-2" x="895.25" y="799.78" width=".34" height="12.13"/></g><g><rect class="cls-2" x="804.99" y="784.5" width="6.18" height="29.85"/><rect class="cls-2" x="808.08" y="774.17" width=".34" height="10.8"/></g><g><rect class="cls-2" x="1018.53" y="726.43" width="6.18" height="29.85"/><rect class="cls-2" x="1021.62" y="716.1" width=".34" height="10.8"/><rect class="cls-2" x="1021.62" y="753.84" width=".34" height="12.13"/></g><g><rect class="cls-2" x="935.46" y="738.44" width="6.18" height="29.85"/><rect class="cls-2" x="938.55" y="728.11" width=".34" height="10.8"/><rect class="cls-2" x="938.55" y="765.85" width=".34" height="12.13"/></g><g><rect class="cls-2" x="989.55" y="709.03" width="6.18" height="29.85"/><rect class="cls-2" x="992.64" y="698.69" width=".34" height="10.8"/><rect class="cls-2" x="992.64" y="736.44" width=".34" height="12.13"/></g><g><rect class="cls-2" x="978.26" y="686.25" width="6.18" height="29.85"/><rect class="cls-2" x="981.35" y="675.91" width=".34" height="10.8"/><rect class="cls-2" x="981.35" y="713.65" width=".34" height="12.13"/></g><g><rect class="cls-2" x="1028.19" y="741.04" width="6.18" height="29.85"/><rect class="cls-2" x="1031.28" y="730.7" width=".34" height="10.8"/><rect class="cls-2" x="1031.28" y="768.44" width=".34" height="12.13"/></g><g><rect class="cls-2" x="924.34" y="723.52" width="6.18" height="29.85"/><rect class="cls-2" x="927.43" y="713.19" width=".34" height="10.8"/><rect class="cls-2" x="927.43" y="750.93" width=".34" height="12.13"/></g><g><rect class="cls-2" x="848.52" y="745.3" width="6.18" height="29.85"/><rect class="cls-2" x="851.61" y="734.97" width=".34" height="10.8"/><rect class="cls-2" x="851.61" y="772.71" width=".34" height="12.13"/></g><g><rect class="cls-2" x="869.75" y="778.46" width="6.18" height="29.85"/><rect class="cls-2" x="872.84" y="768.13" width=".34" height="10.8"/></g><g><rect class="cls-2" x="816.17" y="766.07" width="6.18" height="29.85"/><rect class="cls-2" x="819.26" y="755.73" width=".34" height="10.8"/><rect class="cls-2" x="819.26" y="793.47" width=".34" height="12.13"/></g><g><rect class="cls-2" x="783.82" y="775.16" width="6.18" height="29.85"/><rect class="cls-2" x="786.91" y="764.82" width=".34" height="10.8"/></g><g><rect class="cls-2" x="752.48" y="745.44" width="6.18" height="29.85"/><rect class="cls-2" x="755.57" y="735.1" width=".34" height="10.8"/><rect class="cls-2" x="755.57" y="772.84" width=".34" height="12.13"/></g><g><rect class="cls-2" x="720.41" y="758.24" width="6.18" height="29.85"/><rect class="cls-2" x="723.5" y="747.91" width=".34" height="10.8"/><rect class="cls-2" x="723.5" y="785.65" width=".34" height="12.13"/></g><rect class="cls-2" x="1167.81" y="789.68" width=".34" height="10.8"/><rect class="cls-2" x="1148.09" y="791.37" width=".34" height="10.8"/><g><rect class="cls-2" x="1009.32" y="749.45" width="6.18" height="19.74"/><rect class="cls-2" x="1012.41" y="739.12" width=".34" height="10.8"/><rect class="cls-2" x="1012.41" y="766.75" width=".34" height="12.13"/></g><g><rect class="cls-2" x="946.53" y="726.55" width="6.18" height="19.74"/><rect class="cls-2" x="949.62" y="716.22" width=".34" height="10.8"/><rect class="cls-2" x="949.62" y="743.85" width=".34" height="12.13"/></g><g><rect class="cls-2" x="858.91" y="768.92" width="6.18" height="19.74"/><rect class="cls-2" x="862" y="758.58" width=".34" height="10.8"/><rect class="cls-2" x="862" y="786.21" width=".34" height="12.13"/></g><rect class="cls-2" x="797.97" y="795.51" width=".34" height="10.8"/><g><rect class="cls-2" x="762.59" y="767.11" width="6.18" height="19.74"/><rect class="cls-2" x="765.68" y="756.78" width=".34" height="10.8"/><rect class="cls-2" x="765.68" y="784.41" width=".34" height="12.13"/></g><g><rect class="cls-2" x="709.69" y="780.54" width="6.18" height="19.74"/><rect class="cls-2" x="712.77" y="770.2" width=".34" height="10.8"/><rect class="cls-2" x="712.77" y="797.83" width=".34" height="12.13"/></g><g><rect class="cls-2" x="676.71" y="665.68" width="6.18" height="19.74"/><rect class="cls-2" x="679.79" y="655.35" width=".34" height="10.8"/><rect class="cls-2" x="679.79" y="682.98" width=".34" height="12.13"/></g></g></g></g><g><g><rect class="cls-9" x="146.39" y="106.94" width="16.27" height="162.69"/><rect class="cls-9" x="154.08" y="70.85" width=".9" height="37.31"/><rect class="cls-9" x="154.08" y="260.82" width=".9" height="49.69"/><path class="cls-9" d="m415.3,270.24h-17.5V106.32h17.5v163.92Zm-16.27-1.24h15.03V107.56h-15.03v161.45Z"/><rect class="cls-9" x="406.09" y="70.85" width=".9" height="36.12"/><rect class="cls-9" x="406.09" y="269.67" width=".9" height="40.84"/><rect class="cls-9" x="512" y="2.24" width="16.27" height="162.69"/><rect class="cls-9" x="519.68" y="-33.85" width=".9" height="37.31"/><rect class="cls-9" x="519.68" y="156.12" width=".9" height="49.69"/><path class="cls-9" d="m559.2,57.87h-17.5V-106.06h17.5V57.87Zm-16.27-1.24h15.03V-104.82h-15.03V56.63Z"/><rect class="cls-9" x="550" y="57.11" width=".9" height="41.02"/><path class="cls-9" d="m49.84,295.02h-17.5v-115.34h17.5v115.34Zm-16.27-1.24h15.03v-112.87h-15.03v112.87Z"/><rect class="cls-9" x="40.18" y="144.21" width=".91" height="35.62"/><rect class="cls-9" x="40.18" y="294.21" width=".91" height="35.46"/><rect class="cls-9" x="426.96" y="28.83" width="16.27" height="114.11"/><rect class="cls-9" x="434.18" y="-7.26" width=".9" height="37.31"/><rect class="cls-9" x="434.18" y="128.51" width=".9" height="49.69"/><path class="cls-9" d="m191.82,181.09h-17.5v-115.34h17.5v115.34Zm-16.27-1.23h15.03v-112.87h-15.03v112.87Z"/><rect class="cls-9" x="182.17" y="30.28" width=".91" height="35.79"/><rect class="cls-9" x="182.17" y="180.76" width=".91" height="34.98"/><rect class="cls-9" x="317.81" y="58.86" width="16.27" height="114.11"/><rect class="cls-9" x="325.04" y="22.78" width=".91" height="37.31"/><rect class="cls-9" x="325.04" y="158.54" width=".91" height="49.69"/><path class="cls-9" d="m19.97,224.34H2.46v-79.85h17.5v79.85Zm-16.27-1.24h15.03v-77.38H3.7v77.38Z"/><rect class="cls-9" x="10.31" y="117.89" width=".9" height="27.05"/><rect class="cls-9" x="10.31" y="224.29" width=".9" height="24.94"/><path class="cls-9" d="m249.5,256.29h-17.51v-79.85h17.51v79.85Zm-16.27-1.24h15.03v-77.38h-15.03v77.38Z"/><rect class="cls-9" x="239.84" y="149.85" width=".91" height="27.36"/><rect class="cls-9" x="239.84" y="255.62" width=".91" height="25.56"/><path class="cls-9" d="m134.88,153.06h-17.5v-79.85h17.5v79.85Zm-16.27-1.23h15.03v-77.38h-15.03v77.38Z"/><rect class="cls-9" x="125.23" y="46.62" width=".91" height="27.01"/><rect class="cls-9" x="125.23" y="152.36" width=".91" height="25.6"/><rect class="cls-9" x="62.09" y="161.15" width="16.27" height="78.61"/><rect class="cls-9" x="69.32" y="133.93" width=".91" height="28.44"/><rect class="cls-9" x="69.32" y="233.32" width=".91" height="31.95"/><rect class="cls-9" x="203.19" y="128.5" width="16.27" height="78.61"/><rect class="cls-9" x="210.41" y="101.29" width=".91" height="28.43"/><rect class="cls-9" x="210.41" y="200.68" width=".91" height="31.95"/><path class="cls-9" d="m305.26,231.67h-17.5v-79.85h17.5v79.85Zm-16.27-1.23h15.03v-77.38h-15.03v77.38Z"/><rect class="cls-9" x="295.6" y="125.23" width=".91" height="27.13"/><rect class="cls-9" x="295.6" y="231.08" width=".91" height="25.48"/><rect class="cls-9" x="370.9" y="74.18" width="16.27" height="78.61"/><rect class="cls-9" x="378.13" y="46.97" width=".91" height="28.43"/><rect class="cls-9" x="378.13" y="146.36" width=".91" height="31.95"/><path class="cls-9" d="m472.24,187.13h-17.5v-79.85h17.5v79.85Zm-16.27-1.23h15.03v-77.38h-15.03v77.38Z"/><rect class="cls-9" x="462.58" y="80.69" width=".91" height="26.75"/><rect class="cls-9" x="462.58" y="186.78" width=".91" height="25.24"/><path class="cls-9" d="m107.52,188.62h-17.51v-53.23h17.51v53.23Zm-16.27-1.24h15.03v-50.76h-15.03v50.76Z"/><rect class="cls-9" x="97.87" y="108.79" width=".9" height="26.74"/><rect class="cls-9" x="97.87" y="188.01" width=".9" height="25.49"/><rect class="cls-9" x="259.24" y="233.25" width="16.27" height="51.99"/><rect class="cls-9" x="266.47" y="206.03" width=".9" height="28.44"/><rect class="cls-9" x="266.47" y="278.8" width=".9" height="31.95"/><path class="cls-9" d="m361.17,183.87h-17.5v-53.22h17.5v53.22Zm-16.27-1.23h15.03v-50.76h-15.03v50.76Z"/><rect class="cls-9" x="351.51" y="104.05" width=".91" height="27.16"/><rect class="cls-9" x="351.51" y="183.38" width=".91" height="25.38"/><rect class="cls-9" x="483.6" y="166.61" width="16.27" height="51.99"/><rect class="cls-9" x="490.83" y="139.39" width=".91" height="28.44"/><rect class="cls-9" x="490.83" y="212.16" width=".91" height="31.95"/></g><g><rect class="cls-9" x="749.14" y="72.04" width="16.27" height="227.31"/><rect class="cls-9" x="756.82" y="23.57" width=".91" height="49.69"/><path class="cls-9" d="m689.56,207.54h-17.5V43.61h17.5v163.92Zm-16.27-1.24h15.04V44.85h-15.04v161.45Z"/><rect class="cls-9" x="680.35" y="8.14" width=".91" height="35.74"/><rect class="cls-9" x="680.35" y="207.04" width=".91" height="40.76"/><rect class="cls-9" x="800.46" y="47.82" width="16.27" height="162.69"/><rect class="cls-9" x="808.14" y="11.73" width=".91" height="37.31"/><rect class="cls-9" x="808.14" y="201.71" width=".91" height="49.69"/><rect class="cls-9" x="1158.37" y="-115.11" width="16.27" height="162.69"/><rect class="cls-9" x="1166.05" y="38.77" width=".9" height="49.7"/><rect class="cls-9" x="696.93" y="95.77" width="16.27" height="162.68"/><rect class="cls-9" x="704.61" y="59.68" width=".9" height="37.31"/><rect class="cls-9" x="704.61" y="249.65" width=".9" height="49.69"/><path class="cls-9" d="m739.11,235.2h-17.5v-115.34h17.5v115.34Zm-16.27-1.24h15.03v-112.87h-15.03v112.87Z"/><rect class="cls-9" x="729.46" y="84.38" width=".9" height="35.76"/><rect class="cls-9" x="729.46" y="234.83" width=".9" height="35.02"/><rect class="cls-9" x="645.91" y="-1.99" width="16.27" height="114.11"/><rect class="cls-9" x="653.14" y="97.69" width=".9" height="49.69"/><rect class="cls-9" x="952.95" y="-13.93" width="16.27" height="114.11"/><rect class="cls-9" x="960.18" y="85.75" width=".91" height="49.69"/><path class="cls-9" d="m1124.83,96.92h-17.5V-18.43h17.5v115.35Zm-16.27-1.23h15.04V-17.19h-15.04v112.88Z"/><rect class="cls-9" x="1115.17" y="96.52" width=".91" height="35.05"/><path class="cls-9" d="m638.4,160.8h-17.5V63.21h17.5v97.6Zm-16.27-1.24h15.03v-95.12h-15.03v95.12Z"/><rect class="cls-9" x="628.74" y="36.61" width=".9" height="27.34"/><rect class="cls-9" x="628.74" y="160.43" width=".9" height="25.27"/><path class="cls-9" d="m942.47,152.69h-17.5V55.09h17.5v97.6Zm-16.27-1.23h15.03V56.33h-15.03v95.13Z"/><rect class="cls-9" x="932.82" y="28.49" width=".91" height="27.12"/><rect class="cls-9" x="932.82" y="152.25" width=".91" height="25.33"/><rect class="cls-9" x="978.24" y="91.37" width="16.27" height="96.36"/><rect class="cls-9" x="985.47" y="64.16" width=".91" height="28.43"/><rect class="cls-9" x="985.47" y="181.29" width=".91" height="31.95"/><rect class="cls-9" x="1081.17" y="69.93" width="16.27" height="96.36"/><rect class="cls-9" x="1088.41" y="42.71" width=".9" height="28.43"/><rect class="cls-9" x="1088.41" y="159.85" width=".9" height="31.95"/><rect class="cls-9" x="1133.08" y="-63.91" width="16.27" height="96.36"/><rect class="cls-9" x="1140.31" y="26.01" width=".91" height="31.95"/><path class="cls-9" d="m613.55,219.37h-17.5v-97.6h17.5v97.6Zm-16.27-1.23h15.04v-95.13h-15.04v95.13Z"/><rect class="cls-9" x="603.89" y="95.18" width=".9" height="26.81"/><rect class="cls-9" x="603.89" y="218.62" width=".9" height="25.64"/><rect class="cls-9" x="571.23" y="86.9" width="16.27" height="78.61"/><rect class="cls-9" x="578.45" y="59.68" width=".9" height="28.44"/><rect class="cls-9" x="578.45" y="159.07" width=".9" height="31.95"/><path class="cls-9" d="m791.01,171.49h-17.5v-79.85h17.5v79.85Zm-16.27-1.23h15.03v-77.38h-15.03v77.38Z"/><rect class="cls-9" x="781.36" y="65.05" width=".91" height="26.84"/><path class="cls-9" d="m781.36,170.75v25.63h.91v-25.72c-.29.06-.6.08-.91.09Z"/><path class="cls-9" d="m917.62,184.78h-17.51v-79.85h17.51v79.85Zm-16.27-1.23h15.03v-77.38h-15.03v77.38Z"/><rect class="cls-9" x="907.96" y="78.34" width=".91" height="27.29"/><rect class="cls-9" x="907.96" y="184.2" width=".91" height="25.47"/><path class="cls-9" d="m1073.65,232.68h-17.5v-79.85h17.5v79.85Zm-16.27-1.23h15.04v-77.38h-15.04v77.38Z"/><rect class="cls-9" x="1063.99" y="126.24" width=".9" height="26.93"/><rect class="cls-9" x="1063.99" y="232.2" width=".9" height="25.37"/><path class="cls-9" d="m1200.84,71.17h-17.5V-8.68h17.5v79.85Zm-16.27-1.24h15.03V-7.45h-15.03v77.38Z"/><rect class="cls-9" x="1191.18" y="70.28" width=".9" height="25.78"/><path class="cls-9" d="m841.3,226.47h-17.5v-79.85h17.5v79.85Zm-16.27-1.23h15.03v-77.38h-15.03v77.38Z"/><rect class="cls-9" x="831.64" y="120.03" width=".91" height="26.66"/><rect class="cls-9" x="831.64" y="226.19" width=".91" height="25.17"/><path class="cls-9" d="m866.59,242.44h-17.5v-53.23h17.5v53.23Zm-16.27-1.23h15.03v-50.76h-15.03v50.76Z"/><rect class="cls-9" x="856.94" y="162.62" width=".9" height="27.14"/><rect class="cls-9" x="856.94" y="242.24" width=".9" height="25.09"/><path class="cls-9" d="m1048.21,271.73h-17.5v-53.23h17.5v53.23Zm-16.27-1.23h15.03v-50.76h-15.03v50.76Z"/><rect class="cls-9" x="1038.55" y="191.9" width=".91" height="27.18"/><rect class="cls-9" x="1038.55" y="271.1" width=".91" height="25.51"/><rect class="cls-9" x="876.33" y="151.7" width="16.27" height="51.99"/><rect class="cls-9" x="883.56" y="124.48" width=".9" height="28.44"/><rect class="cls-9" x="883.56" y="197.25" width=".9" height="31.95"/><rect class="cls-9" x="1004.11" y="176.57" width="16.27" height="51.99"/><rect class="cls-9" x="1011.34" y="149.35" width=".9" height="28.43"/><rect class="cls-9" x="1011.34" y="222.12" width=".9" height="31.94"/></g></g><g><rect class="cls-9" x="4.43" y="699.96" width="19.04" height="131.74"/><rect class="cls-9" x="13.41" y="670.74" width="1.06" height="30.21"/><rect class="cls-9" x="423.19" y="568.02" width="19.03" height="131.74"/><rect class="cls-9" x="432.18" y="538.8" width="1.06" height="30.21"/><rect class="cls-9" x="432.18" y="692.63" width="1.06" height="40.24"/><rect class="cls-9" x="838.49" y="620.92" width="19.03" height="131.74"/><rect class="cls-9" x="847.48" y="591.7" width="1.06" height="30.21"/><rect class="cls-9" x="847.48" y="745.53" width="1.06" height="40.24"/><rect class="cls-9" x="1039.91" y="690.61" width="19.03" height="131.74"/><rect class="cls-9" x="1048.9" y="661.39" width="1.06" height="30.21"/><rect class="cls-9" x="671.33" y="518.64" width="19.03" height="131.74"/><rect class="cls-9" x="680.32" y="489.41" width="1.06" height="30.21"/><rect class="cls-9" x="680.32" y="643.25" width="1.06" height="40.24"/><rect class="cls-9" x="541.72" y="555.75" width="19.04" height="131.74"/><rect class="cls-9" x="550.71" y="526.53" width="1.06" height="30.21"/><rect class="cls-9" x="550.71" y="680.36" width="1.06" height="40.24"/><path class="cls-9" d="m826.23,660.74h-20.48v-132.74h20.48v132.74Zm-19.03-1h17.59v-130.74h-17.59v130.74Z"/><rect class="cls-9" x="815.46" y="499.28" width="1.06" height="29.49"/><rect class="cls-9" x="815.46" y="660.27" width="1.06" height="33.08"/><rect class="cls-9" x="182.84" y="649.95" width="19.04" height="92.4"/><rect class="cls-9" x="191.3" y="620.73" width="1.06" height="30.21"/><rect class="cls-9" x="191.3" y="730.67" width="1.06" height="40.24"/><path class="cls-9" d="m926.94,842.92h-20.48v-93.4h20.48v93.4Zm-19.03-1h17.59v-91.4h-17.59v91.4Z"/><rect class="cls-9" x="915.64" y="720.8" width="1.06" height="28.85"/><path class="cls-9" d="m1093.06,750.66h-20.48v-93.4h20.48v93.4Zm-19.03-1h17.59v-91.4h-17.59v91.4Z"/><rect class="cls-9" x="1081.77" y="628.54" width="1.06" height="28.98"/><rect class="cls-9" x="1081.77" y="750.39" width="1.06" height="28.33"/><path class="cls-9" d="m383.95,739.72h-20.48v-93.41h20.48v93.41Zm-19.04-1h17.59v-91.41h-17.59v91.41Z"/><rect class="cls-9" x="372.65" y="617.59" width="1.06" height="28.93"/><rect class="cls-9" x="372.65" y="739.39" width="1.06" height="28.38"/><path class="cls-9" d="m658.9,574.38h-20.48v-93.4h20.48v93.4Zm-19.03-1h17.59v-91.4h-17.59v91.4Z"/><rect class="cls-9" x="647.6" y="452.25" width="1.06" height="29.27"/><rect class="cls-9" x="647.6" y="574.02" width="1.06" height="28.42"/><path class="cls-9" d="m170.59,784.88h-20.48v-79.03h20.48v79.03Zm-19.03-1h17.59v-77.03h-17.59v77.03Z"/><rect class="cls-9" x="159.29" y="684.31" width="1.06" height="21.96"/><rect class="cls-9" x="159.29" y="784.52" width="1.06" height="20.51"/><rect class="cls-9" x="212.44" y="735.22" width="19.04" height="78.03"/><rect class="cls-9" x="220.89" y="713.19" width="1.06" height="23.02"/><rect class="cls-9" x="332.87" y="717.86" width="19.04" height="78.03"/><rect class="cls-9" x="341.33" y="695.82" width="1.06" height="23.03"/><rect class="cls-9" x="341.33" y="790.67" width="1.06" height="25.87"/><rect class="cls-9" x="393.6" y="609.48" width="19.04" height="78.03"/><rect class="cls-9" x="402.06" y="587.44" width="1.06" height="23.03"/><rect class="cls-9" x="402.06" y="682.29" width="1.06" height="25.87"/><path class="cls-9" d="m141.51,810.87h-20.48v-64.66h20.48v64.66Zm-19.04-1h17.59v-62.66h-17.59v62.66Z"/><rect class="cls-9" x="130.21" y="724.67" width="1.06" height="22.1"/><path class="cls-9" d="m324.07,849.66h-20.48v-64.66h20.48v64.66Zm-19.04-1h17.59v-62.66h-17.59v62.66Z"/><rect class="cls-9" x="312.77" y="763.46" width="1.06" height="21.81"/><path class="cls-9" d="m891.99,785.68h-20.48v-64.66h20.48v64.66Zm-19.03-1h17.59v-62.66h-17.59v62.66Z"/><rect class="cls-9" x="880.69" y="699.49" width="1.06" height="21.91"/><rect class="cls-9" x="880.69" y="785.64" width="1.06" height="20.19"/><path class="cls-9" d="m1160.55,811.56h-20.48v-64.66h20.48v64.66Zm-19.04-1h17.59v-62.66h-17.59v62.66Z"/><rect class="cls-9" x="1149.25" y="725.36" width="1.06" height="22.16"/><path class="cls-9" d="m502.65,687.72h-20.48v-64.66h20.48v64.66Zm-19.03-1h17.59v-62.66h-17.59v62.66Z"/><rect class="cls-9" x="491.35" y="601.53" width="1.06" height="21.99"/><rect class="cls-9" x="491.35" y="687.27" width="1.06" height="20.61"/><path class="cls-9" d="m758.57,713.34h-20.48v-64.66h20.48v64.66Zm-19.03-1h17.59v-62.66h-17.59v62.66Z"/><rect class="cls-9" x="747.28" y="627.14" width="1.06" height="21.88"/><rect class="cls-9" x="747.28" y="712.77" width="1.06" height="20.72"/><path class="cls-9" d="m591.93,650.61h-20.48v-64.66h20.48v64.66Zm-19.03-1h17.59v-62.66h-17.59v62.66Z"/><rect class="cls-9" x="580.64" y="564.41" width="1.06" height="21.86"/><rect class="cls-9" x="580.64" y="650.27" width="1.06" height="20.5"/><rect class="cls-9" x="606.96" y="537.87" width="19.03" height="63.66"/><rect class="cls-9" x="615.42" y="515.83" width="1.06" height="23.03"/><rect class="cls-9" x="615.42" y="596.31" width="1.06" height="25.87"/><path class="cls-9" d="m472.88,718.86h-20.48v-64.66h20.48v64.66Zm-19.03-1h17.59v-62.66h-17.59v62.66Z"/><rect class="cls-9" x="461.59" y="632.67" width="1.06" height="21.73"/><rect class="cls-9" x="461.59" y="718.14" width="1.06" height="20.87"/><rect class="cls-9" x="773.08" y="617.35" width="19.03" height="63.66"/><rect class="cls-9" x="781.54" y="595.32" width="1.06" height="23.03"/><rect class="cls-9" x="781.54" y="675.8" width="1.06" height="25.87"/><path class="cls-9" d="m1026.44,727.97h-20.48v-64.66h20.48v64.66Zm-19.03-1h17.59v-62.66h-17.59v62.66Z"/><rect class="cls-9" x="1015.14" y="641.77" width="1.06" height="21.88"/><rect class="cls-9" x="1015.14" y="727.39" width="1.06" height="20.73"/><rect class="cls-9" x="941.28" y="734.51" width="19.03" height="63.66"/><rect class="cls-9" x="949.73" y="712.48" width="1.06" height="23.03"/><rect class="cls-9" x="949.73" y="792.96" width="1.06" height="25.87"/><rect class="cls-9" x="1106.36" y="708.08" width="19.03" height="63.66"/><rect class="cls-9" x="1114.82" y="686.04" width="1.06" height="23.03"/><rect class="cls-9" x="1114.82" y="766.52" width="1.06" height="25.87"/><path class="cls-9" d="m52.22,844.62h-20.48v-64.66h20.48v64.66Zm-19.03-1h17.59v-62.66h-17.59v62.66Z"/><rect class="cls-9" x="40.92" y="758.43" width="1.06" height="21.59"/><rect class="cls-9" x="70.51" y="792.92" width="1.06" height="21.97"/><rect class="cls-9" x="93.2" y="784.08" width="19.04" height="42.1"/><rect class="cls-9" x="101.66" y="762.04" width="1.06" height="23.03"/><rect class="cls-9" x="251.17" y="782.17" width="1.06" height="23.03"/><rect class="cls-9" x="511.27" y="672.66" width="19.03" height="42.1"/><rect class="cls-9" x="519.73" y="650.62" width="1.06" height="23.03"/><rect class="cls-9" x="519.73" y="709.54" width="1.06" height="25.87"/><path class="cls-9" d="m724.49,666.42h-20.48v-43.1h20.48v43.1Zm-19.03-1h17.59v-41.1h-17.59v41.1Z"/><rect class="cls-9" x="713.19" y="601.78" width="1.06" height="21.86"/><rect class="cls-9" x="713.19" y="666.14" width="1.06" height="20.43"/><path class="cls-9" d="m994.43,756.76h-20.48v-43.1h20.48v43.1Zm-19.04-1h17.59v-41.1h-17.59v41.1Z"/><rect class="cls-9" x="983.13" y="692.12" width="1.06" height="21.65"/><rect class="cls-9" x="983.13" y="756.27" width="1.06" height="20.64"/><rect class="cls-9" x="1171.94" y="792.9" width="19.03" height="42.1"/><rect class="cls-9" x="1180.4" y="770.86" width="1.06" height="23.03"/></g><g class="cls-8"><rect class="cls-9" x="1056.41" y="280.93" width="13.17" height="184.07"/><rect class="cls-9" x="1062.63" y="241.67" width=".73" height="40.24"/><path class="cls-9" d="m1117.83,257.91h14.17v132.74h-14.17v-132.74Zm13.17,1h-12.17v130.74h12.17v-130.74Z"/><rect class="cls-9" x="1124.55" y="229.19" width=".73" height="28.94"/><rect class="cls-9" x="1124.55" y="390.25" width=".73" height="33.01"/><rect class="cls-9" x="1014.85" y="261.32" width="13.18" height="131.74"/><rect class="cls-9" x="1021.07" y="232.09" width=".73" height="30.21"/><rect class="cls-9" x="1021.07" y="385.93" width=".73" height="40.24"/><rect class="cls-9" x="725.02" y="129.38" width="13.17" height="131.74"/><rect class="cls-9" x="731.24" y="100.15" width=".73" height="30.21"/><rect class="cls-9" x="731.24" y="253.99" width=".73" height="40.24"/><rect class="cls-9" x="437.58" y="182.28" width="13.17" height="131.74"/><rect class="cls-9" x="443.8" y="153.05" width=".73" height="30.21"/><rect class="cls-9" x="443.8" y="306.89" width=".73" height="40.24"/><rect class="cls-9" x="298.18" y="251.97" width="13.17" height="131.74"/><rect class="cls-9" x="304.4" y="222.75" width=".73" height="30.21"/><rect class="cls-9" x="304.4" y="376.59" width=".73" height="40.24"/><path class="cls-9" d="m93.6,251.47h14.17v132.74h-14.17v-132.74Zm13.17,1h-12.17v130.74h12.17v-130.74Z"/><rect class="cls-9" x="100.32" y="222.75" width=".73" height="29.25"/><rect class="cls-9" x="100.32" y="383.75" width=".73" height="33.07"/><rect class="cls-9" x="2.12" y="167.19" width="13.17" height="131.74"/><rect class="cls-9" x="8.34" y="137.96" width=".73" height="30.21"/><rect class="cls-9" x="8.34" y="291.8" width=".73" height="40.24"/><rect class="cls-9" x="553.28" y="79.99" width="13.17" height="131.74"/><rect class="cls-9" x="559.5" y="50.77" width=".73" height="30.21"/><rect class="cls-9" x="559.5" y="204.61" width=".73" height="40.24"/><rect class="cls-9" x="642.98" y="117.11" width="13.18" height="131.74"/><rect class="cls-9" x="649.2" y="87.88" width=".73" height="30.21"/><rect class="cls-9" x="649.2" y="241.72" width=".73" height="40.24"/><path class="cls-9" d="m459.24,89.36h14.17v132.74h-14.17V89.36Zm13.17,1h-12.17v130.74h12.17V90.36Z"/><rect class="cls-9" x="465.96" y="60.63" width=".73" height="29.49"/><rect class="cls-9" x="465.96" y="221.63" width=".73" height="33.08"/><rect class="cls-9" x="1098.69" y="300.15" width="13.17" height="131.74"/><rect class="cls-9" x="1104.91" y="270.92" width=".73" height="30.21"/><rect class="cls-9" x="1104.91" y="424.76" width=".73" height="40.24"/><path class="cls-9" d="m1077.7,319.65h14.17v93.4h-14.17v-93.4Zm13.17,1h-12.17v91.4h12.17v-91.4Z"/><rect class="cls-9" x="1084.79" y="290.92" width=".73" height="28.96"/><rect class="cls-9" x="1084.79" y="412.75" width=".73" height="28.36"/><rect class="cls-9" x="1140" y="220.98" width="13.17" height="92.4"/><rect class="cls-9" x="1146.58" y="191.76" width=".73" height="30.21"/><rect class="cls-9" x="1146.58" y="301.7" width=".73" height="40.24"/><rect class="cls-9" x="891.37" y="211.31" width="13.17" height="92.4"/><rect class="cls-9" x="897.95" y="182.09" width=".73" height="30.21"/><rect class="cls-9" x="897.95" y="292.03" width=".73" height="40.24"/><path class="cls-9" d="m389.54,310.88h14.17v93.4h-14.17v-93.4Zm13.17,1h-12.17v91.4h12.17v-91.4Z"/><rect class="cls-9" x="396.62" y="282.16" width=".73" height="28.85"/><rect class="cls-9" x="396.62" y="403.63" width=".73" height="28.71"/><rect class="cls-9" x="70.98" y="188.72" width="13.17" height="92.4"/><rect class="cls-9" x="77.57" y="159.5" width=".73" height="30.21"/><rect class="cls-9" x="77.57" y="269.44" width=".73" height="40.24"/><path class="cls-9" d="m274.56,218.62h14.17v93.4h-14.17v-93.4Zm13.17,1h-12.17v91.4h12.17v-91.4Z"/><rect class="cls-9" x="281.65" y="189.9" width=".73" height="28.98"/><rect class="cls-9" x="281.65" y="311.75" width=".73" height="28.33"/><rect class="cls-9" x="159.37" y="213.04" width="13.17" height="92.4"/><rect class="cls-9" x="165.95" y="183.82" width=".73" height="30.21"/><rect class="cls-9" x="165.95" y="293.76" width=".73" height="40.24"/><path class="cls-9" d="m765.35,207.67h14.17v93.41h-14.17v-93.41Zm13.17,1h-12.17v91.41h12.17v-91.41Z"/><rect class="cls-9" x="772.44" y="178.95" width=".73" height="28.93"/><rect class="cls-9" x="772.44" y="300.75" width=".73" height="28.38"/><path class="cls-9" d="m575.05,42.33h14.17v93.4h-14.17V42.33Zm13.17,1h-12.17v91.4h12.17V43.33Z"/><rect class="cls-9" x="582.14" y="13.61" width=".73" height="29.27"/><rect class="cls-9" x="582.14" y="135.38" width=".73" height="28.42"/><path class="cls-9" d="m1159.26,273.78h14.17v79.03h-14.17v-79.03Zm13.17,1h-12.17v77.03h12.17v-77.03Z"/><rect class="cls-9" x="1166.35" y="252.24" width=".73" height="22.14"/><rect class="cls-9" x="1166.35" y="352.5" width=".73" height="20.46"/><path class="cls-9" d="m913.02,267.2h14.17v79.03h-14.17v-79.03Zm13.17,1h-12.17v77.03h12.17v-77.03Z"/><rect class="cls-9" x="920.11" y="245.67" width=".73" height="21.96"/><rect class="cls-9" x="920.11" y="345.88" width=".73" height="20.51"/><rect class="cls-9" x="870.88" y="296.58" width="13.17" height="78.03"/><rect class="cls-9" x="877.47" y="274.55" width=".73" height="23.02"/><rect class="cls-9" x="877.47" y="369.4" width=".73" height="25.87"/><rect class="cls-9" x="787.53" y="279.22" width="13.17" height="78.03"/><rect class="cls-9" x="794.12" y="257.18" width=".73" height="23.03"/><rect class="cls-9" x="794.12" y="352.03" width=".73" height="25.87"/><rect class="cls-9" x="745.5" y="170.83" width="13.18" height="78.03"/><rect class="cls-9" x="752.09" y="148.8" width=".73" height="23.03"/><rect class="cls-9" x="752.09" y="243.65" width=".73" height="25.87"/><path class="cls-9" d="m1179.38,321.2h14.17v79.03h-14.17v-79.03Zm13.17,1h-12.17v77.03h12.17v-77.03Z"/><rect class="cls-9" x="1186.47" y="299.66" width=".73" height="21.71"/><rect class="cls-9" x="1186.47" y="399.63" width=".73" height="20.76"/><path class="cls-9" d="m1035.67,296.8h14.17v64.66h-14.17v-64.66Zm13.17,1h-12.17v62.66h12.17v-62.66Z"/><rect class="cls-9" x="1042.76" y="275.27" width=".73" height="21.74"/><path class="cls-9" d="m1043.49,360.86v20.76h-.73v-20.83c.24.04.49.07.73.08Z"/><path class="cls-9" d="m933.15,307.56h14.18v64.66h-14.18v-64.66Zm13.18,1h-12.18v62.66h12.18v-62.66Z"/><rect class="cls-9" x="940.24" y="286.03" width=".73" height="22.1"/><rect class="cls-9" x="940.24" y="371.75" width=".73" height="20.63"/><path class="cls-9" d="m806.8,346.35h14.17v64.66h-14.17v-64.66Zm13.17,1h-12.17v62.66h12.17v-62.66Z"/><rect class="cls-9" x="813.88" y="324.82" width=".73" height="21.81"/><rect class="cls-9" x="813.88" y="410.63" width=".73" height="20.54"/><path class="cls-9" d="m413.73,282.38h14.17v64.66h-14.17v-64.66Zm13.17,1h-12.17v62.66h12.17v-62.66Z"/><rect class="cls-9" x="420.82" y="260.84" width=".73" height="21.91"/><rect class="cls-9" x="420.82" y="347" width=".73" height="20.19"/><path class="cls-9" d="m227.85,308.26h14.18v64.66h-14.18v-64.66Zm13.18,1h-12.18v62.66h12.18v-62.66Z"/><rect class="cls-9" x="234.94" y="286.72" width=".73" height="22.16"/><rect class="cls-9" x="234.94" y="372.38" width=".73" height="20.69"/><path class="cls-9" d="m683.2,184.42h14.17v64.66h-14.17v-64.66Zm13.17,1h-12.17v62.66h12.17v-62.66Z"/><rect class="cls-9" x="690.29" y="162.88" width=".73" height="21.99"/><rect class="cls-9" x="690.29" y="248.63" width=".73" height="20.61"/><path class="cls-9" d="m506.07,210.04h14.17v64.66h-14.17v-64.66Zm13.17,1h-12.17v62.66h12.17v-62.66Z"/><rect class="cls-9" x="513.15" y="188.5" width=".73" height="21.88"/><rect class="cls-9" x="513.15" y="274.13" width=".73" height="20.72"/><path class="cls-9" d="m621.4,147.31h14.17v64.66h-14.17v-64.66Zm13.17,1h-12.17v62.66h12.17v-62.66Z"/><rect class="cls-9" x="628.49" y="125.77" width=".73" height="21.86"/><rect class="cls-9" x="628.49" y="211.63" width=".73" height="20.5"/><rect class="cls-9" x="597.83" y="99.23" width="13.17" height="63.66"/><rect class="cls-9" x="604.42" y="77.19" width=".73" height="23.03"/><rect class="cls-9" x="604.42" y="157.67" width=".73" height="25.87"/><path class="cls-9" d="m703.8,215.56h14.17v64.66h-14.17v-64.66Zm13.17,1h-12.17v62.66h12.17v-62.66Z"/><rect class="cls-9" x="710.89" y="194.02" width=".73" height="21.73"/><rect class="cls-9" x="710.89" y="279.5" width=".73" height="20.87"/><rect class="cls-9" x="482.85" y="178.71" width="13.17" height="63.66"/><rect class="cls-9" x="489.44" y="156.68" width=".73" height="23.03"/><rect class="cls-9" x="489.44" y="237.16" width=".73" height="25.87"/><path class="cls-9" d="m320.67,224.66h14.17v64.66h-14.17v-64.66Zm13.17,1h-12.17v62.66h12.17v-62.66Z"/><rect class="cls-9" x="327.76" y="203.13" width=".73" height="21.88"/><rect class="cls-9" x="327.76" y="288.75" width=".73" height="20.73"/><rect class="cls-9" x="366.44" y="295.87" width="13.17" height="63.66"/><rect class="cls-9" x="373.03" y="273.83" width=".73" height="23.03"/><rect class="cls-9" x="373.03" y="354.32" width=".73" height="25.87"/><rect class="cls-9" x="252.19" y="269.44" width="13.17" height="63.66"/><rect class="cls-9" x="258.77" y="247.4" width=".73" height="23.03"/><rect class="cls-9" x="258.77" y="327.88" width=".73" height="25.87"/><path class="cls-9" d="m182.7,288.32h14.17v64.66h-14.17v-64.66Zm13.17,1h-12.17v62.66h12.17v-62.66Z"/><rect class="cls-9" x="189.79" y="266.79" width=".73" height="21.97"/><rect class="cls-9" x="189.79" y="352.5" width=".73" height="20.63"/><rect class="cls-9" x="116.37" y="225.45" width="13.17" height="63.66"/><rect class="cls-9" x="122.96" y="203.41" width=".73" height="23.03"/><rect class="cls-9" x="122.96" y="283.89" width=".73" height="25.87"/><path class="cls-9" d="m47.49,252.25h14.17v64.66h-14.17v-64.66Zm13.17,1h-12.17v62.66h12.17v-62.66Z"/><rect class="cls-9" x="54.58" y="230.72" width=".73" height="21.66"/><rect class="cls-9" x="54.58" y="316.63" width=".73" height="20.44"/><path class="cls-9" d="m994.95,341.32h14.17v64.66h-14.17v-64.66Zm13.17,1h-12.17v62.66h12.17v-62.66Z"/><rect class="cls-9" x="1002.04" y="319.79" width=".73" height="21.59"/><rect class="cls-9" x="1002.04" y="405.75" width=".73" height="20.38"/><path class="cls-9" d="m974.47,375.82h14.17v43.1h-14.17v-43.1Zm13.17,1h-12.17v41.1h12.17v-41.1Z"/><rect class="cls-9" x="981.55" y="354.28" width=".73" height="21.97"/><rect class="cls-9" x="981.55" y="418.75" width=".73" height="20.32"/><path class="cls-9" d="m827.4,399.53h14.17v43.1h-14.17v-43.1Zm13.17,1h-12.17v41.1h12.17v-41.1Z"/><rect class="cls-9" x="834.48" y="377.99" width=".73" height="22.01"/><rect class="cls-9" x="834.48" y="442.13" width=".73" height="20.66"/><rect class="cls-9" x="953.41" y="345.43" width="13.18" height="42.1"/><rect class="cls-9" x="960" y="323.4" width=".73" height="23.03"/><rect class="cls-9" x="960" y="382.32" width=".73" height="25.87"/><rect class="cls-9" x="849.93" y="365.57" width="13.17" height="42.1"/><rect class="cls-9" x="856.52" y="343.53" width=".73" height="23.03"/><rect class="cls-9" x="856.52" y="402.46" width=".73" height="25.87"/><rect class="cls-9" x="664.06" y="234.01" width="13.17" height="42.1"/><rect class="cls-9" x="670.65" y="211.98" width=".73" height="23.03"/><rect class="cls-9" x="670.65" y="270.9" width=".73" height="25.87"/><path class="cls-9" d="m529.66,184.68h14.17v43.1h-14.17v-43.1Zm13.17,1h-12.17v41.1h12.17v-41.1Z"/><rect class="cls-9" x="536.75" y="163.14" width=".73" height="21.86"/><rect class="cls-9" x="536.75" y="227.5" width=".73" height="20.43"/><path class="cls-9" d="m342.83,275.01h14.18v43.1h-14.18v-43.1Zm13.18,1h-12.18v41.1h12.18v-41.1Z"/><rect class="cls-9" x="349.92" y="253.47" width=".73" height="21.65"/><rect class="cls-9" x="349.92" y="317.63" width=".73" height="20.64"/><rect class="cls-9" x="206.8" y="354.26" width="13.17" height="42.1"/><rect class="cls-9" x="213.38" y="332.22" width=".73" height="23.03"/><rect class="cls-9" x="213.38" y="391.14" width=".73" height="25.87"/><path class="cls-9" d="m137.43,271.17h14.17v43.1h-14.17v-43.1Zm13.17,1h-12.17v41.1h12.17v-41.1Z"/><rect class="cls-9" x="144.52" y="249.63" width=".73" height="21.99"/><rect class="cls-9" x="144.52" y="313.88" width=".73" height="20.55"/><rect class="cls-9" x="25.11" y="300.29" width="13.17" height="42.1"/><rect class="cls-9" x="31.7" y="278.26" width=".73" height="23.03"/><rect class="cls-9" x="31.7" y="337.18" width=".73" height="25.87"/></g><polygon class="cls-2" points="-375.17 884.9 -376.27 883.88 -268.86 766.46 -268.38 766.65 -148.85 813.82 -41.17 753.05 16.62 766.68 38.77 794.46 176.75 727.04 248.48 656.84 275.42 503.33 362.79 666.02 376.45 766.6 458.36 766.6 501.78 692.83 596.4 692.83 596.57 692.92 688.42 743.78 825.79 588.57 826.3 589.5 902.78 728.28 985.69 709.7 1036.33 636.47 1142.62 681.73 1244.06 561.66 1321.51 646.63 1432.43 645.16 1467.24 486.18 1603.95 703.99 1602.68 704.79 1467.92 490.08 1433.64 646.65 1433.05 646.66 1320.86 648.14 1244.1 563.93 1143.05 683.54 1036.87 638.33 986.59 711.04 986.3 711.1 902.01 729.99 901.74 729.5 825.5 591.16 688.75 745.67 596.01 694.33 502.64 694.33 459.22 768.1 375.14 768.1 361.32 666.36 276.15 507.85 249.88 657.57 249.7 657.74 177.63 728.28 177.52 728.33 38.35 796.34 15.77 768.02 -40.94 754.65 -148.73 815.48 -149.07 815.35 -268.45 768.24 -375.17 884.9"/></g><g><g><g><path class="cls-12" d="m358.71,681.87c-.1-.1-.19-.22-.29-.33l-100.88,130.2-44.71-54.79c-.28.35-.6.67-.95.96l45.7,55.99,101.83-131.43c-.24-.18-.48-.38-.69-.6Z"/><path class="cls-12" d="m569.91,641.46l-56.45-42.73-.56-.42-93.22,132.81-43.08-52.4c-.08.54-.24,1.06-.46,1.55l43.63,53.06,93.44-133.11,55.94,42.35c.22-.39.47-.76.76-1.11Z"/><path class="cls-12" d="m1135.51,708.49l-93.99-29.26-.2-.06-117.12,35.03-63.92-99.21-55.16-82.46c-.27.37-.59.7-.95,1l54.98,82.2,64.19,99.63.27.42,117.69-35.2,94.04,29.27c0-.46.06-.91.15-1.36Z"/><path class="cls-12" d="m1325.12,455.31l-39.85-18.15-69.07,175.89-62.71,89.26c.34.33.63.69.88,1.08l62.97-89.63.05-.07,68.61-174.73,38.52,17.54c.16-.42.36-.82.6-1.2Z"/><path class="cls-12" d="m788.21,519.4l-128.13-35-.54-.15-74.7,153.09c.4.21.78.47,1.12.76l74.3-152.26,127.08,34.71c.25-.41.54-.8.87-1.15Z"/><path class="cls-12" d="m194.68,742.78c.1-.16.21-.31.31-.46l-68.09-47.19-85.45,122.68,1.1.77,84.69-121.58,67.14,46.5c.1-.24.2-.48.3-.72Z"/></g><circle class="cls-12" cx="126.91" cy="695.13" r="11.14"/><path class="cls-12" d="m204.85,761.12c-6.7,0-12.15-5.45-12.15-12.14s5.45-12.15,12.15-12.15,12.14,5.45,12.14,12.15-5.45,12.14-12.14,12.14Zm0-22.28c-5.59,0-10.13,4.54-10.13,10.13s4.54,10.13,10.13,10.13,10.13-4.54,10.13-10.13-4.54-10.13-10.13-10.13Z"/><path class="cls-12" d="m366.65,685.92c-6.42,0-11.65-5.23-11.65-11.65s5.23-11.65,11.65-11.65,11.65,5.23,11.65,11.65-5.23,11.65-11.65,11.65Zm0-21.37c-5.36,0-9.72,4.36-9.72,9.72s4.36,9.72,9.72,9.72,9.72-4.36,9.72-9.72-4.36-9.72-9.72-9.72Z"/><path class="cls-12" d="m579.59,659.23c-6.42,0-11.65-5.23-11.65-11.65s5.23-11.65,11.65-11.65,11.65,5.23,11.65,11.65-5.23,11.65-11.65,11.65Zm0-21.37c-5.36,0-9.72,4.36-9.72,9.72s4.36,9.72,9.72,9.72,9.72-4.36,9.72-9.72-4.36-9.72-9.72-9.72Z"/><path class="cls-12" d="m797.07,537.12c-6.42,0-11.65-5.23-11.65-11.65s5.23-11.65,11.65-11.65,11.65,5.23,11.65,11.65-5.23,11.65-11.65,11.65Zm0-21.37c-5.36,0-9.72,4.36-9.72,9.72s4.36,9.72,9.72,9.72,9.72-4.36,9.72-9.72-4.36-9.72-9.72-9.72Z"/><path class="cls-12" d="m1146.2,721.76c-6.42,0-11.65-5.23-11.65-11.65s5.23-11.65,11.65-11.65,11.65,5.23,11.65,11.65-5.23,11.65-11.65,11.65Zm0-21.37c-5.36,0-9.72,4.36-9.72,9.72s4.36,9.72,9.72,9.72,9.72-4.36,9.72-9.72-4.36-9.72-9.72-9.72Z"/><path class="cls-12" d="m428.28,731.11c0,4.75-3.85,8.6-8.6,8.6s-8.6-3.85-8.6-8.6,3.85-8.6,8.6-8.6,8.6,3.85,8.6,8.6Z"/><path class="cls-12" d="m521.65,600.01c0,4.75-3.85,8.6-8.6,8.6s-8.6-3.85-8.6-8.6,3.85-8.6,8.6-8.6,8.6,3.85,8.6,8.6Z"/><path class="cls-12" d="m668.5,486.31c0,4.75-3.85,8.6-8.6,8.6s-8.6-3.85-8.6-8.6,3.85-8.6,8.6-8.6,8.6,3.85,8.6,8.6Z"/><path class="cls-12" d="m932.51,714.99c0,4.75-3.85,8.6-8.6,8.6s-8.6-3.85-8.6-8.6,3.85-8.6,8.6-8.6,8.6,3.85,8.6,8.6Z"/><path class="cls-12" d="m1053.46,679.11c0,5.74-4.65,10.39-10.39,10.39s-10.39-4.65-10.39-10.39,4.65-10.39,10.39-10.39,10.39,4.65,10.39,10.39Z"/></g><g class="cls-6"><g><path class="cls-12" d="m1185.9,467.05l49.75-61.36.49-.6,136.44,118.98,32.68-68.26c.24.56.55,1.08.92,1.56l-33.1,69.13-136.75-119.26-49.3,60.81c-.34-.37-.72-.7-1.12-.99Z"/><path class="cls-12" d="m591.09,690.65l94.01-56.78.2-.12,136.22,6.68,42.75-124.54,37.74-104.05c.39.33.83.61,1.29.84l-37.62,103.72-42.94,125.06-.18.53-136.89-6.72-94.06,56.81c-.13-.49-.31-.97-.53-1.43Z"/><path class="cls-12" d="m318.1,467l38.32-30.3,121.78,172.11,91.76,79.96c-.28.44-.5.92-.67,1.41l-92.14-80.29-.07-.06-120.96-170.96-37.05,29.28c-.29-.41-.61-.79-.97-1.14Z"/><path class="cls-12" d="m197.65,577.5l51.13-36.29,51.7-57.55c.36.34.76.65,1.18.92l-51.82,57.7-51.5,36.57c-.18-.47-.41-.92-.69-1.34Z"/><path class="cls-12" d="m1.59,611.74l-81.93-24,.42-1.44L1.91,610.28c-.16.48-.26.97-.31,1.47Z"/><path class="cls-12" d="m18.3,603.17l51.45-105.25,105.68,77.49c-.27.44-.5.9-.67,1.37l-104.45-76.59-50.7,103.73c-.42-.3-.85-.55-1.3-.75Z"/><path class="cls-12" d="m916.84,393.11l129.46-72.12.54-.3,121.79,145.9c-.38.34-.72.72-1.01,1.12l-121.13-145.12-128.4,71.53c-.38-.38-.79-.73-1.25-1.02Z"/></g><path class="cls-12" d="m1164.42,479.38c-1.72-6.96,2.55-14.02,9.51-15.73,6.96-1.71,14.02,2.55,15.73,9.51,1.72,6.96-2.55,14.02-9.51,15.73-6.96,1.71-14.02-2.55-15.73-9.51Zm2.09-.52c1.43,5.8,7.32,9.36,13.12,7.93,5.8-1.43,9.37-7.32,7.93-13.12-1.43-5.8-7.32-9.37-13.12-7.94-5.8,1.43-9.36,7.32-7.93,13.12Z"/><path class="cls-12" d="m896.23,405.15c-1.72-6.96,2.55-14.02,9.51-15.73,6.96-1.71,14.02,2.55,15.73,9.51,1.71,6.96-2.55,14.02-9.51,15.73-6.96,1.71-14.02-2.55-15.73-9.51Zm2.09-.52c1.43,5.8,7.32,9.36,13.12,7.93,5.8-1.43,9.37-7.32,7.93-13.12-1.43-5.8-7.32-9.36-13.12-7.93-5.81,1.43-9.36,7.32-7.93,13.12Z"/><path class="cls-12" d="m567.32,698.37c-1.71-6.96,2.55-14.02,9.51-15.73,6.96-1.71,14.02,2.55,15.73,9.51,1.71,6.96-2.55,14.02-9.51,15.73-6.96,1.71-14.02-2.55-15.73-9.51Zm2.1-.52c1.43,5.8,7.32,9.36,13.12,7.93,5.81-1.43,9.37-7.32,7.94-13.12-1.43-5.81-7.32-9.37-13.12-7.94-5.8,1.43-9.36,7.32-7.93,13.12Z"/><path class="cls-12" d="m295.7,477.55c-1.72-6.96,2.55-14.02,9.51-15.74,6.96-1.71,14.02,2.55,15.73,9.51,1.72,6.96-2.55,14.02-9.51,15.73-6.96,1.71-14.02-2.55-15.73-9.51Zm2.1-.52c1.43,5.8,7.32,9.36,13.12,7.93,5.81-1.43,9.37-7.32,7.94-13.12-1.43-5.81-7.32-9.37-13.12-7.94-5.8,1.43-9.36,7.32-7.93,13.12Z"/><path class="cls-12" d="m173.75,585.04c-1.72-6.96,2.55-14.02,9.51-15.74,6.96-1.72,14.02,2.55,15.73,9.51,1.72,6.96-2.55,14.02-9.51,15.73-6.96,1.71-14.02-2.55-15.73-9.51Zm2.09-.52c1.43,5.8,7.32,9.36,13.12,7.93,5.81-1.43,9.36-7.32,7.93-13.12-1.43-5.81-7.32-9.37-13.12-7.94-5.8,1.43-9.36,7.32-7.93,13.12Z"/><path class="cls-12" d="m.4,617.11c-1.71-6.96,2.55-14.02,9.51-15.73,6.96-1.71,14.02,2.55,15.73,9.51,1.72,6.96-2.55,14.02-9.51,15.73-6.96,1.71-14.02-2.55-15.73-9.51Zm2.09-.52c1.43,5.8,7.32,9.36,13.12,7.93,5.81-1.43,9.37-7.32,7.94-13.12-1.43-5.81-7.32-9.37-13.12-7.93-5.8,1.43-9.36,7.32-7.93,13.12Z"/><path class="cls-12" d="m1037.69,325.3c1.27,5.14,6.46,8.29,11.61,7.02,5.14-1.27,8.29-6.47,7.02-11.61-1.27-5.15-6.47-8.29-11.61-7.02-5.14,1.27-8.29,6.47-7.02,11.61Z"/><path class="cls-12" d="m812.73,643.51c1.27,5.14,6.46,8.29,11.61,7.02,5.14-1.27,8.29-6.47,7.02-11.61-1.27-5.14-6.46-8.29-11.61-7.02-5.14,1.27-8.29,6.46-7.02,11.61Z"/><path class="cls-12" d="m345.95,443.72c1.27,5.14,6.46,8.29,11.61,7.02,5.15-1.27,8.29-6.47,7.02-11.61-1.27-5.14-6.46-8.29-11.61-7.02-5.15,1.27-8.29,6.47-7.02,11.61Z"/><path class="cls-12" d="m241.06,542.25c1.27,5.14,6.46,8.29,11.61,7.02,5.14-1.27,8.29-6.46,7.02-11.61-1.27-5.14-6.46-8.29-11.61-7.02-5.15,1.27-8.29,6.46-7.02,11.61Z"/><path class="cls-12" d="m60.82,504.1c1.27,5.14,6.46,8.29,11.61,7.02,5.14-1.27,8.29-6.46,7.02-11.61-1.27-5.14-6.46-8.29-11.61-7.02-5.14,1.27-8.29,6.46-7.02,11.61Z"/><path class="cls-12" d="m672.12,636.92c1.53,6.21,7.81,10.01,14.03,8.48,6.22-1.53,10.01-7.81,8.48-14.03-1.53-6.21-7.81-10.01-14.03-8.48-6.22,1.53-10.01,7.81-8.48,14.03Z"/><path class="cls-12" d="m467.47,609.56c1.53,6.21,7.81,10.01,14.03,8.48,6.22-1.53,10.01-7.81,8.48-14.03-1.53-6.22-7.81-10.01-14.03-8.48-6.22,1.53-10.01,7.81-8.48,14.03Z"/></g><g class="cls-4"><g><path class="cls-12" d="m297.54,579.35l-66.81,76.51-.65.75L60.34,497.3l-45.2,86.18c-.28-.73-.65-1.42-1.11-2.04l45.78-87.28,170.12,159.67,66.21-75.82c.42.49.89.93,1.4,1.33Z"/><path class="cls-12" d="m1072.38,319.98l-123.47,68.55-.26.14-174.73-14.99-60.79,158.02-53.38,131.93c-.49-.44-1.03-.82-1.62-1.13l53.21-131.51,61.05-158.68.26-.68,175.59,15.07,123.54-68.59c.15.64.35,1.26.61,1.87Z"/><path class="cls-12" d="m1412.65,620.19l-50.67,37.13-148.39-226.88-114.15-107.05c.38-.56.68-1.16.92-1.78l114.63,107.5.08.08,147.4,225.37,48.98-35.89c.35.54.74,1.05,1.19,1.51Z"/><path class="cls-12" d="m639.81,687.01l-169.75,86.59-.71.36-149.64-193.21c.5-.42.96-.89,1.36-1.4l148.83,192.16,168.36-85.88c.48.51.99.97,1.56,1.37Z"/></g><path class="cls-12" d="m18.84,589.23c1.88,9.02-3.94,17.89-12.96,19.77-9.02,1.88-17.89-3.94-19.77-12.96-1.88-9.02,3.94-17.89,12.96-19.77,9.02-1.88,17.89,3.94,19.77,12.96Zm-2.71.56c-1.56-7.52-8.96-12.38-16.49-10.81-7.53,1.57-12.38,8.96-10.81,16.49,1.57,7.53,8.96,12.38,16.49,10.81,7.53-1.56,12.38-8.96,10.81-16.49Z"/><path class="cls-12" d="m325.72,564.51c1.88,9.02-3.94,17.89-12.96,19.77-9.02,1.88-17.9-3.94-19.77-12.96-1.88-9.02,3.94-17.89,12.96-19.77,9.02-1.88,17.89,3.94,19.77,12.96Zm-2.72.57c-1.56-7.52-8.96-12.38-16.49-10.81-7.53,1.56-12.38,8.96-10.81,16.49,1.56,7.53,8.96,12.38,16.49,10.81,7.53-1.56,12.37-8.96,10.81-16.49Z"/><path class="cls-12" d="m666.85,672.5c1.88,9.02-3.94,17.89-12.96,19.77-9.02,1.88-17.89-3.94-19.77-12.96-1.87-9.02,3.94-17.89,12.96-19.77,9.03-1.87,17.89,3.94,19.77,12.96Zm-2.72.56c-1.56-7.53-8.96-12.38-16.49-10.81-7.53,1.57-12.38,8.96-10.81,16.49,1.57,7.53,8.96,12.38,16.49,10.81,7.53-1.56,12.38-8.96,10.81-16.49Z"/><path class="cls-12" d="m1103.29,311.18c1.88,9.02-3.94,17.89-12.96,19.77-9.02,1.88-17.89-3.94-19.77-12.96-1.88-9.03,3.94-17.89,12.96-19.77,9.02-1.88,17.89,3.93,19.77,12.96Zm-2.72.56c-1.57-7.53-8.96-12.38-16.49-10.81-7.53,1.57-12.38,8.96-10.81,16.49,1.57,7.53,8.96,12.38,16.49,10.81,7.52-1.57,12.38-8.96,10.81-16.49Z"/><path class="cls-12" d="m72.42,494.79c-1.39-6.67-7.92-10.95-14.59-9.57-6.67,1.39-10.96,7.92-9.57,14.59,1.39,6.67,7.92,10.95,14.59,9.56,6.67-1.39,10.95-7.92,9.57-14.59Z"/><path class="cls-12" d="m241.87,651.65c-1.39-6.67-7.92-10.95-14.59-9.57-6.67,1.39-10.95,7.92-9.56,14.59,1.39,6.67,7.92,10.95,14.59,9.56,6.67-1.39,10.95-7.92,9.57-14.59Z"/><path class="cls-12" d="m481.33,768.46c-1.39-6.67-7.91-10.95-14.59-9.57-6.67,1.39-10.96,7.92-9.57,14.59,1.39,6.67,7.92,10.95,14.59,9.56,6.67-1.39,10.95-7.92,9.57-14.59Z"/><path class="cls-12" d="m785.36,370.14c-1.39-6.67-7.92-10.95-14.59-9.56-6.67,1.39-10.95,7.92-9.57,14.59,1.39,6.67,7.92,10.95,14.59,9.56,6.67-1.39,10.95-7.92,9.57-14.59Z"/><path class="cls-12" d="m965.72,385.22c-1.68-8.06-9.56-13.23-17.63-11.56-8.06,1.68-13.23,9.57-11.56,17.62,1.68,8.06,9.57,13.24,17.63,11.56,8.06-1.68,13.23-9.57,11.56-17.63Z"/><path class="cls-12" d="m1227.41,429.99c-1.68-8.06-9.57-13.23-17.63-11.56-8.06,1.68-13.23,9.57-11.56,17.63,1.67,8.06,9.57,13.23,17.62,11.55,8.06-1.68,13.23-9.57,11.56-17.63Z"/></g></g></g></g></svg>